# xmcd
#
# Track frame offsets:
#	150
#	14167
#	28820
#	46772
#	62610
#	80112
#	91617
#	108072
#	123760
#	139437
#
# Disc length: 2112 seconds
#
# Revision: 1
# Processed by: cddbd v1.5.1PL2 Copyright (c) Steve Scherf et al.
# Submitted via: audiograbber 1.83.01
#
DISCID=7d083e0a
DTITLE=Paul Overstreet - Time
DYEAR=1996
DGENRE=Kristen Country Musik
TTITLE0=We've Got to Keep on Meeting Like This
TTITLE1=I'm Gonna Ring Her
TTITLE2=Even when it Don't Feel Like It
TTITLE3=Let's Go to Bed Early
TTITLE4=You Gave Me Time
TTITLE5=I Always Will
TTITLE6=One in a Million
TTITLE7=Blackberry Cobbler
TTITLE8=Mr. Miller
TTITLE9=My Rock
EXTD=
EXTT0=
EXTT1=
EXTT2=
EXTT3=
EXTT4=
EXTT5=
EXTT6=
EXTT7=
EXTT8=
EXTT9=
PLAYORDER=
